  <svg width="161" height="68" viewBox="0 0 161 68" fill="none" xmlns="http://www.w3.org/2000/svg">
<path fill-rule="evenodd" clip-rule="evenodd" d="M0 15.2456C0 6.82571 6.82568 3.05176e-05 15.2456 3.05176e-05H47.1277C55.5476 3.05176e-05 62.3733 6.82571 62.3733 15.2456C62.3733 23.6655 55.5476 30.4912 47.1277 30.4912H36.672C34.7342 30.4912 33.1632 32.0621 33.1632 34C33.1632 35.9379 34.7342 37.5088 36.672 37.5088H145.519C153.939 37.5088 160.765 44.3345 160.765 52.7544C160.765 61.1743 153.939 68 145.519 68H15.2456C6.82566 68 0 61.1743 0 52.7544C0 44.3345 6.82568 37.5088 15.2456 37.5088H25.7012C27.639 37.5088 29.21 35.9379 29.21 34C29.21 32.0621 27.639 30.4912 25.7012 30.4912H15.2456C6.82568 30.4912 0 23.6655 0 15.2456ZM63.7516 59.3378C62.9974 59.3378 62.4076 59.1876 61.9835 58.8834C61.5581 58.5811 61.2612 58.1286 61.0916 57.5222C60.9219 56.9176 60.8371 56.1703 60.8371 55.2766V50.2202C60.8371 48.7688 61.0651 47.6986 61.5223 47.0114C61.9782 46.3242 62.7218 45.9787 63.7529 45.9787H68.5467C69.2796 45.9787 69.8389 46.0351 70.2272 46.1496C70.6143 46.2623 70.8091 46.3805 70.8091 46.5007L70.491 48.3821C70.3107 48.337 69.7766 48.2882 68.89 48.2337C68.0033 48.1812 66.7164 48.1549 65.0279 48.1549H64.2154C63.3659 48.1549 62.9418 48.6919 62.9418 49.7658V55.5488C62.9418 56.0633 63.0345 56.4594 63.2201 56.7392C63.4056 57.019 63.7383 57.1579 64.2154 57.1579H64.8688C66.6316 57.1579 67.9993 57.1316 68.9708 57.079C69.9423 57.0265 70.5453 56.9701 70.7786 56.9082L71.432 58.4046C71.432 58.4797 71.3445 58.5943 71.1696 58.7445C70.9946 58.8965 70.6726 59.0317 70.2061 59.1519C69.7382 59.2721 69.0649 59.334 68.1836 59.334H63.7555L63.7516 59.3378ZM28.2322 59.3377V47.8187L28.0731 45.9824H35.1293C35.8092 45.9824 36.342 46.112 36.7303 46.3673C37.1174 46.6246 37.405 46.9607 37.5905 47.3756C37.7761 47.7924 37.8953 48.2337 37.9483 48.7031C38.0014 49.1725 38.0279 49.6175 38.0279 50.0418V51.3805C38.0279 51.7279 37.9908 52.1184 37.9165 52.5484C37.8423 52.9783 37.7045 53.3952 37.503 53.7951C37.3016 54.195 37.0087 54.5292 36.627 54.7921C36.2453 55.0568 35.7456 55.1883 35.1293 55.1883H33.5044C32.8351 55.1883 32.2109 55.1657 31.633 55.1207C31.0538 55.0756 30.6218 55.038 30.3355 55.008V59.3396H28.2335L28.2322 59.3377ZM30.3342 53.0103H34.6668C35.1452 53.0103 35.4739 52.8431 35.6542 52.5108C35.8344 52.1785 35.9245 51.7786 35.9245 51.3092V49.8803C35.9245 49.3959 35.8344 48.9885 35.6542 48.6561C35.4739 48.3238 35.1492 48.1567 34.6827 48.1567H30.3342V53.0103ZM13.0358 59.3376C12.3135 59.3376 11.7834 59.2926 11.4428 59.2025C11.1035 59.1123 10.9325 59.0053 10.9325 58.8851L11.57 56.9118C11.8139 56.9719 12.4222 57.0282 13.3937 57.0827C14.3652 57.1352 15.7011 57.1615 17.4002 57.1615H17.7024C18.1583 57.1615 18.483 57.0451 18.6739 56.8104C18.8648 56.5757 18.9602 56.1795 18.9602 55.62V55.1656C18.9602 54.6362 18.8833 54.2588 18.7296 54.0316C18.5758 53.8044 18.2326 53.6917 17.7024 53.6917H14.0073C12.9351 53.6917 12.1545 53.4082 11.6654 52.8412C11.1764 52.2742 10.9325 51.3485 10.9325 50.0624V49.7C10.9325 49.0353 11.02 48.4232 11.1949 47.8637C11.3699 47.3042 11.6694 46.8554 12.0948 46.5137C12.5189 46.1739 13.1034 46.003 13.847 46.003H18.1795C18.9019 46.003 19.485 46.0556 19.9317 46.1626C20.3783 46.2678 20.601 46.3823 20.601 46.5025L20.2829 48.4082C20.0072 48.3631 19.3803 48.3143 18.4035 48.2599C17.4267 48.2073 16.1146 48.181 14.4685 48.181L14.2936 48.1585C13.8045 48.1585 13.4759 48.2993 13.3062 48.5772C13.1366 48.857 13.0451 49.2081 13.0358 49.6324V50.0173C13.0358 50.5167 13.1339 50.8904 13.3301 51.1401C13.5262 51.3898 13.8536 51.5137 14.3095 51.5137H17.8456C18.5255 51.5137 19.1046 51.6114 19.5818 51.8085C20.0602 52.0057 20.426 52.3643 20.6805 52.8863C20.935 53.4082 21.0622 54.1762 21.0622 55.1882V55.5506C21.0622 56.6846 20.8581 57.599 20.4486 58.2937C20.039 58.9884 19.3313 59.3376 18.3227 59.3376H13.0358ZM47.4725 46.003L42.8059 59.3376H45.1306L46.1657 56.4574H51.8687L52.8083 59.3376H55.2616L50.6109 46.003H47.4725ZM51.2802 54.2362H46.7422L48.9396 48.0458H49.0987L51.2802 54.2362ZM77.8008 46.003V59.3376H86.4978C87.1989 59.3376 87.6932 59.3114 87.9795 59.2588C88.2658 59.2043 88.4089 59.148 88.4089 59.0879L87.7714 57.1596H79.9028V53.5547H85.8603V51.3091H79.9028V48.1791H87.7078V46.003H77.8008ZM97.982 59.3377L97.9661 48.1586H93.8243V45.9824H104.242V48.1586H100.084V59.3377H97.982ZM110.613 46.003V59.3376H112.715V46.003H110.613ZM120.202 59.3379V47.8189L120.042 46.0051H122.464L126.064 55.0758L129.79 46.0051H131.94V59.3398H129.838V50.8812H129.663L129.042 52.8546L127.035 57.9804H125.108L123.101 52.8546L122.464 50.8812H122.305V59.3398H120.203L120.202 59.3379ZM139.268 45.9958V55.4085H147.965C148.666 55.4085 149.16 55.39 149.447 55.3529C149.733 55.3144 149.876 55.2747 149.876 55.2323L149.238 53.8711H141.37V51.3264H147.327V49.7413H141.37V47.5319H149.175V45.9958H139.268ZM13.9614 11.6628V14.8873V14.889L10.9266 16.625L13.9614 18.3697V21.5976L8.04078 18.2848H8.02856V14.9773H8.04078L13.9614 11.6628ZM48.4541 21.4263V18.2035L51.4865 16.4692L48.4541 14.735V11.5105L54.3662 14.8215H54.3808V18.1326H54.3662L48.4541 21.4263ZM45.9153 6.95323L42.4382 23.7473H44.503L47.9801 6.95323H45.9153ZM23.5217 14.6191C23.5583 13.3054 23.2492 12.0246 22.6616 11.0536H22.6628C22.372 10.595 22.0189 10.235 21.628 9.99783C21.237 9.76071 20.818 9.6534 20.3965 9.67936C19.9444 9.64993 19.4936 9.76071 19.0709 10.003C18.6481 10.2453 18.2621 10.6157 17.9383 11.09V10.029H15.8735V21.7726H17.9383V16.5715C17.9383 13.8731 18.5846 12.5248 19.8772 12.5248C20.0935 12.511 20.3097 12.5715 20.5089 12.7014C20.7068 12.8312 20.8839 13.0285 21.0257 13.276C21.3274 13.842 21.4814 14.5533 21.4569 15.2768V21.7726H23.5217V14.6191ZM26.1497 5.14476V21.9388H28.2144V5.14476H26.1497ZM38.1584 21.3227H39.8798L42.7766 9.55833H40.5701L38.9439 16.6166L37.2689 9.55833H35.6586L33.9836 16.5941L32.3575 9.55833H30.151L33.0453 21.3227H34.7656L36.4699 14.4046L38.1584 21.3227Z" fill="url(#paint0_linear_50_390)"/>
<defs>
<linearGradient id="paint0_linear_50_390" x1="12.8968" y1="3.11847e-05" x2="209.598" y2="43.2127" gradientUnits="userSpaceOnUse">
<stop offset="0.251308" stop-color="#996DFF"/>
<stop offset="0.623787" stop-color="#FF876E"/>
<stop offset="1" stop-color="#FFD072"/>
</linearGradient>
</defs>
</svg>
